<svg width="18" height="18" viewBox="0 0 18 18" fill="none" xmlns="http://www.w3.org/2000/svg">
<path d="M17 9C17 13.4183 13.4183 17 9 17C4.58172 17 1 13.4183 1 9C1 4.58172 4.58172 1 9 1C13.4183 1 17 4.58172 17 9Z" stroke="#3C434A" stroke-width="2"/>
<path fill-rule="evenodd" clip-rule="evenodd" d="M10.5 13C12.433 13 14 10.9853 14 8.5C14 6.01472 12.433 4 10.5 4C8.567 4 7 6.01472 7 8.5C7 10.9853 8.567 13 10.5 13ZM12 9C12.5523 9 13 8.32843 13 7.5C13 6.67157 12.5523 6 12 6C11.4477 6 11 6.67157 11 7.5C11 8.32843 11.4477 9 12 9Z" fill="#3C434A"/>
<path d="M1.5 6.49998C5.16667 5.16665 13.3 3.29998 16.5 6.49998" stroke="#3C434A" stroke-width="2"/>
</svg>
