<svg width="18" height="18" viewBox="0 0 18 18" fill="none" xmlns="http://www.w3.org/2000/svg">
<path fill-rule="evenodd" clip-rule="evenodd" d="M16.1434 2.51769C16.1437 2.51771 16.1409 2.52123 16.134 2.52819C16.1396 2.52116 16.1431 2.51768 16.1434 2.51769ZM15.325 3C15.1549 2.92695 14.9578 2.85148 14.7315 2.77605C13.3567 2.31777 11.3301 2 9 2C6.66986 2 4.64333 2.31777 3.26849 2.77605C3.04219 2.85148 2.84505 2.92695 2.67497 3C2.84505 3.07305 3.04219 3.14852 3.26849 3.22395C4.64333 3.68223 6.66986 4 9 4C11.3301 4 13.3567 3.68223 14.7315 3.22395C14.9578 3.14852 15.1549 3.07305 15.325 3ZM1.85662 2.51769C1.85693 2.51768 1.86036 2.52116 1.86597 2.52819C1.85911 2.52122 1.8563 2.51771 1.85662 2.51769ZM9 6C11.8273 6 14.35 5.56544 16 4.88578V8C16 8.03018 15.985 8.21275 15.5953 8.51099C15.2131 8.80343 14.5907 9.10572 13.7184 9.36174L14.2816 11.2808C14.9124 11.0957 15.4938 10.8724 16 10.6084V14C16 14.154 15.8197 14.6702 14.4976 15.1909C13.275 15.6723 11.4107 16 9 16C6.58932 16 4.72499 15.6723 3.50243 15.1909C2.18028 14.6702 2 14.154 2 14V10.6105C2.35717 10.846 2.72376 11.0538 3.05845 11.2185L3.94155 9.42403C3.46234 9.1882 2.91016 8.84381 2.49438 8.49027C2.28582 8.31294 2.14037 8.15751 2.0548 8.03696C2.02529 7.99539 2.00875 7.96633 2 7.9491V4.88578C3.64996 5.56544 6.17273 6 9 6ZM9 0C13.9706 0 18 1.34315 18 3V8V14C18 15.5029 16.6656 16.4866 15.2304 17.0518C13.6956 17.6562 11.5599 18 9 18C6.44012 18 4.30445 17.6562 2.76964 17.0518C1.33444 16.4866 0 15.5029 0 14V8.00463V3C0 1.34315 4.02944 0 9 0ZM9 9.5C9 10.3284 8.32843 11 7.5 11C6.67157 11 6 10.3284 6 9.5C6 8.67157 6.67157 8 7.5 8C8.32843 8 9 8.67157 9 9.5ZM8.87869 11.5858C8.48348 11.8476 8.00954 12 7.5 12C6.11929 12 5 10.8807 5 9.5C5 8.11929 6.11929 7 7.5 7C8.88071 7 10 8.11929 10 9.5C10 10.0095 9.84756 10.4835 9.5858 10.8787L9.85355 11.1464L10.2071 10.7929L12.7071 13.2929L11.2929 14.7071L8.79289 12.2071L9.14645 11.8536L8.87869 11.5858Z" fill="#3C434A"/>
</svg>
