<svg width="18" height="18" viewBox="0 0 18 18" fill="none" xmlns="http://www.w3.org/2000/svg">
<path fill-rule="evenodd" clip-rule="evenodd" d="M16 2H7.8176C7.71225 2.14955 7.6207 2.31393 7.54297 2.49315C7.45882 2.6927 7.39687 2.91064 7.35711 3.14697C7.57171 2.93175 7.83191 2.75482 8.1377 2.6162C8.47949 2.46125 8.87598 2.38377 9.32715 2.38377C9.78288 2.38377 10.1839 2.47036 10.5303 2.64354C10.8812 2.81672 11.1751 3.05825 11.4121 3.36815C11.6536 3.67805 11.8359 4.04035 11.959 4.45506C12.082 4.86978 12.1436 5.31867 12.1436 5.80174C12.1436 6.28937 12.057 6.74282 11.8838 7.1621C11.7152 7.57681 11.4759 7.93911 11.166 8.24901C10.8561 8.55891 10.4893 8.80044 10.0654 8.97362C9.6416 9.1468 9.17448 9.23339 8.66406 9.23339C8.13997 9.23339 7.65462 9.14452 7.20801 8.96678C6.76595 8.78449 6.37858 8.52245 6.0459 8.18065C5.71777 7.8343 5.46029 7.41275 5.27344 6.916C5.09115 6.41926 5 5.85643 5 5.22752V4.3867C5 3.53449 5.139 2.7757 5.41699 2.11034C5.43285 2.073 5.44881 2.03623 5.46491 2H2V16H8.28246L9.75098 12.7773H5V11H12.1777V12.2305L10.5707 16H16V2ZM7.30371 5.56932V4.86589L7.31738 4.83788C7.4222 4.63736 7.57487 4.47329 7.77539 4.34569C7.98047 4.21353 8.22884 4.14745 8.52051 4.14745C8.71191 4.14745 8.88737 4.18618 9.04688 4.26366C9.21094 4.33657 9.34993 4.44595 9.46387 4.59178C9.58236 4.73306 9.6735 4.90624 9.7373 5.11131C9.80111 5.31639 9.83301 5.54654 9.83301 5.80174C9.83301 6.03872 9.80339 6.25747 9.74414 6.45799C9.6849 6.65851 9.59831 6.83397 9.48438 6.98436C9.375 7.13475 9.24512 7.25096 9.09473 7.33299C8.94434 7.41503 8.78027 7.45604 8.60254 7.45604C8.38835 7.45604 8.19922 7.4173 8.03516 7.33983C7.87565 7.26236 7.74121 7.14614 7.63184 6.9912C7.52246 6.83625 7.44043 6.64029 7.38574 6.40331C7.33105 6.16633 7.30371 5.88833 7.30371 5.56932ZM2 0H0V2V16V18H2H16H18V16V2V0H16H2Z" fill="#3C434A"/>
</svg>
