<svg width="19" height="20" viewBox="0 0 19 20" fill="none" xmlns="http://www.w3.org/2000/svg">
<path fill-rule="evenodd" clip-rule="evenodd" d="M11.5045 1.18435L10.7955 4.9639L8.82981 4.59517L9.53879 0.815613L11.5045 1.18435ZM5.34588 5.73847L3.17466 2.5646L4.82536 1.43536L6.99659 4.60924L5.34588 5.73847ZM6.40839 12.0142L3.23452 14.1854L2.10529 12.5347L5.27916 10.3635L6.40839 12.0142ZM0.815643 8.49651L4.5952 9.20549L4.96393 7.23978L1.18438 6.5308L0.815643 8.49651ZM12.7562 7.67173L15.93 5.5005L14.8008 3.8498L11.6269 6.02102L12.7562 7.67173ZM12.8588 18.0379L14.4457 16.9523L14.4457 16.9523L16.0327 15.8667L15.0777 14.4707L14.9034 14.216L13.8614 12.6928L13.9427 12.6747L15.3501 12.3608L15.9638 12.2238L18.9144 11.5657L15.4967 10.2789L11.196 8.65958L7.93206 7.43066L7.93207 7.43069L7.89456 10.9181L7.84512 15.5133L7.80584 19.165L9.48856 16.6536L9.83859 16.1311L10.6413 14.9332L10.6876 14.864L11.7296 16.3872L11.9038 16.6419L12.8588 18.0379Z" fill="#3C434A"/>
</svg>
