<svg width="15" height="18" viewBox="0 0 15 18" fill="none" xmlns="http://www.w3.org/2000/svg">
<path fill-rule="evenodd" clip-rule="evenodd" d="M6 0C5.44772 0 5 0.447715 5 1C5 1.55228 5.44771 2 6 2V3.15003C2.57664 3.84493 0 6.87156 0 10.5C0 14.6421 3.35786 18 7.5 18C11.6421 18 15 14.6421 15 10.5C15 6.87156 12.4234 3.84493 9 3.15003V2C9.55228 2 10 1.55228 10 1C10 0.447715 9.55228 0 9 0H6ZM7.5 16C10.5376 16 13 13.5376 13 10.5C13 7.46243 10.5376 5 7.5 5C4.46243 5 2 7.46243 2 10.5C2 13.5376 4.46243 16 7.5 16Z" fill="#3C434A"/>
<path fill-rule="evenodd" clip-rule="evenodd" d="M7.5 6C7.22386 6 7 6.22386 7 6.5V10.5C7 10.7761 7.22386 11 7.5 11H10.5C10.7761 11 11 10.7761 11 10.5C11 10.2239 10.7761 10 10.5 10H8V6.5C8 6.22386 7.77614 6 7.5 6Z" fill="#3C434A"/>
</svg>
