<svg width="15" height="18" viewBox="0 0 15 18" fill="none" xmlns="http://www.w3.org/2000/svg">
<path fill-rule="evenodd" clip-rule="evenodd" d="M5 1C5 0.447715 5.44772 0 6 0H9C9.55228 0 10 0.447715 10 1C10 1.55228 9.55228 2 9 2V3.15003C12.4234 3.84493 15 6.87156 15 10.5C15 14.6421 11.6421 18 7.5 18C3.35786 18 0 14.6421 0 10.5C0 6.87156 2.57664 3.84493 6 3.15003V2C5.44771 2 5 1.55228 5 1ZM13 10.5C13 13.5376 10.5376 16 7.5 16C4.46243 16 2 13.5376 2 10.5C2 7.46243 4.46243 5 7.5 5C10.5376 5 13 7.46243 13 10.5ZM7 6.5C7 6.22386 7.22386 6 7.5 6C7.77614 6 8 6.22386 8 6.5V10H10.5C10.7761 10 11 10.2239 11 10.5C11 10.7761 10.7761 11 10.5 11H7.5C7.22386 11 7 10.7761 7 10.5V6.5Z" fill="#3C434A"/>
</svg>
