<svg width="18" height="18" viewBox="0 0 18 18" fill="none" xmlns="http://www.w3.org/2000/svg">
<path fill-rule="evenodd" clip-rule="evenodd" d="M0 18V6H12V18H0ZM10 16V8H2V16H10Z" fill="#3C434A"/>
<path fill-rule="evenodd" clip-rule="evenodd" d="M6 0H8.25V2H8V2.56818H6V0ZM11.5833 2H9.08333V0H11.5833V2ZM14.9167 2H12.4167V0H14.9167V2ZM16 2H15.75V0H18V2.25H16V2ZM16 5.58333V3.08333H18V5.58333H16ZM8 3.61364V5.18182H6V3.61364H8ZM16 8.91667V6.41667H18V8.91667H16ZM16 10V9.75H18V12H15.4034V10H16ZM12.7424 10H14.339V12H12.7424V10Z" fill="#3C434A"/>
</svg>
