<svg width="18" height="18" viewBox="0 0 18 18" fill="none" xmlns="http://www.w3.org/2000/svg">
<path fill-rule="evenodd" clip-rule="evenodd" d="M1 0H0V1V17V18H1H4V16H2V2H16V8H18V1V0H17H1ZM16 12V16H15V18H17H18V17V12H16ZM14.2268 14.436L12.6399 15.5216L12.6399 15.5217L11.053 16.6073L10.098 15.2113L9.92372 14.9566L8.88173 13.4334L8.83541 13.5025L8.03275 14.7005L7.68272 15.2229L6 17.7344L6.03928 14.0827L6.08871 9.48741L6.12623 6.00003L6.12622 6L9.39011 7.22892L13.6909 8.84823L17.1086 10.135L14.158 10.7932L13.5442 10.9301L12.1368 11.244L12.0556 11.2621L13.0976 12.7853L13.2718 13.04L14.2268 14.436Z" fill="#3C434A"/>
</svg>
