<svg width="18" height="18" viewBox="0 0 18 18" fill="none" xmlns="http://www.w3.org/2000/svg">
<path fill-rule="evenodd" clip-rule="evenodd" d="M4.1579 0H3.15789V1V6.85714H1H0V7.85714V12.4286V14.7143V15.155L0.325231 15.4523L2.82523 17.738L3.11176 18H3.5H15H15.5039L15.8037 17.595L17.8037 14.8937L18 14.6286V14.2987V11.5974V8.8961V3V2H17H15.0199V1V0H14.0199H4.1579ZM2 8.85714H3.15789V12.2208H5.1579V7.85714V2H6.5V9.5H8.5V2H10V9.5H12V2H13.0199V3H13.0198L13.0199 3.00662L13.0526 7.9528V9.51948H15.0526V7.9495H15.0527L15.0526 7.94287L15.0265 4H16V8.8961V11.5974V13.9688L14.4961 16H3.88824L2 14.2736V12.4286V8.85714Z" fill="#3C434A"/>
</svg>
