<svg width="18" height="18" viewBox="0 0 18 18" fill="none" xmlns="http://www.w3.org/2000/svg">
<path fill-rule="evenodd" clip-rule="evenodd" d="M13.0132 2.00003L13.0199 3.00665L13.0526 7.95283V9.51951H15.0526V7.94952H15.0527L15.0526 7.9429L15.0265 4.00003H16V8.89613V11.5974V13.9688L14.4961 16H3.88824L2 14.2736V12.4286V8.85717H3.15789V12.2208H5.1579V7.85717V2.00003H6.73684V5.19483V9.51951H8.73684V5.19483V2.00003H9.99929L9.9966 9.51915L11.9966 9.51987L11.9993 2.00003H13.0132ZM14 2.88486e-05L15 -0.0065918L15.0133 2.00003H17H18V3.00003V8.89613V11.5974V14.2987V14.6286L17.8037 14.8938L15.8037 17.5951L15.5039 18H15H3.5H3.11176L2.82523 17.7381L0.325231 15.4523L0 15.155V14.7143V12.4286V7.85717V6.85717H1H3.15789V1.00003V2.8789e-05H4.1579H7.73684H8.73684L10 2.88486e-05V-0.000327856L11.0002 2.88486e-05H14Z" fill="#3C434A"/>
</svg>
