<svg width="18" height="18" viewBox="0 0 18 18" fill="none" xmlns="http://www.w3.org/2000/svg">
<path fill-rule="evenodd" clip-rule="evenodd" d="M12.5 4.5V7H14.5V4.5H17V2.5H14.5V0H12.5V2.5H10V4.5H12.5Z" fill="#3C434A"/>
<path fill-rule="evenodd" clip-rule="evenodd" d="M0 0H1H8.5V2H2V8H16V6H18V17V18H17H1H0V17V1V0ZM2 16V15H16V16H2ZM3 14V9H4.9816C5.32233 9 5.62046 9.07324 5.87601 9.21973C6.13156 9.36621 6.33031 9.5721 6.47228 9.8374C6.61425 10.1027 6.68524 10.4128 6.68524 10.7676C6.68524 11.1257 6.61201 11.4357 6.46556 11.6978C6.3206 11.9598 6.11661 12.1616 5.85359 12.3032C5.59207 12.4448 5.28646 12.5156 4.93677 12.5156H4.24635V14H3ZM4.68571 11.4609H4.24635V10.084H4.68571C4.83216 10.084 4.95694 10.1117 5.06006 10.167C5.16467 10.2207 5.24462 10.2988 5.29991 10.4014C5.3567 10.5023 5.38509 10.6243 5.38509 10.7676C5.38509 10.9092 5.3567 11.0321 5.29991 11.1362C5.24462 11.2404 5.16467 11.321 5.06006 11.3779C4.95694 11.4333 4.83216 11.4609 4.68571 11.4609ZM8.90893 14H7.14253V9H8.891C9.36324 9 9.77121 9.1001 10.1149 9.30029C10.4601 9.49886 10.7261 9.78532 10.913 10.1597C11.1012 10.5324 11.1954 10.9792 11.1954 11.5C11.1954 12.0208 11.102 12.4684 10.9152 12.8428C10.7284 13.2155 10.4639 13.502 10.1217 13.7021C9.77943 13.9007 9.37519 14 8.90893 14ZM8.38888 12.8477H8.8641C9.09125 12.8477 9.28478 12.8078 9.44468 12.728C9.60608 12.6483 9.72862 12.5107 9.81231 12.3154C9.89749 12.1201 9.94008 11.8483 9.94008 11.5C9.94008 11.1517 9.89675 10.8799 9.81007 10.6846C9.72489 10.4893 9.59936 10.3517 9.43348 10.272C9.26909 10.1922 9.06734 10.1523 8.82824 10.1523H8.38888V12.8477ZM15 9H11.7721V14H13.0184V12.0469H14.8027V10.9531H13.0184V10.0938H15V9Z" fill="#3C434A"/>
</svg>
