<svg width="18" height="18" viewBox="0 0 18 18" fill="none" xmlns="http://www.w3.org/2000/svg">
<path d="M2 1.00003H16L17 1.00002V16V16.0065V16.013V16.0194V16.0259V16.0323V16.0388V16.0452V16.0517V16.0581V16.0645V16.0709V16.0773V16.0838V16.0902V16.0966V16.103V16.1093V16.1157V16.1221V16.1285V16.1348V16.1412V16.1476V16.1539V16.1603V16.1666V16.1729V16.1793V16.1856V16.1919V16.1982V16.2045V16.2108V16.2171V16.2234V16.2297V16.236V16.2422V16.2485V16.2548V16.261V16.2673V16.2735V16.2797V16.286V16.2922V16.2984V16.3046V16.3108V16.317V16.3232V16.3294V16.3356V16.3417V16.3479V16.3541V16.3602V16.3664V16.3725V16.3786V16.3848V16.3909V16.397V16.4031V16.4092V16.4153V16.4214V16.4275V16.4335V16.4396V16.4457V16.4517V16.4578V16.4638V16.4698V16.4758V16.4819V16.4879V16.4939V16.4999V16.5059V16.5118V16.5178V16.5238V16.5297V16.5357V16.5416V16.5476V16.5535V16.5594V16.5653V16.5712V16.5771V16.583V16.5889V16.5948V16.6006V16.6065V16.6124V16.6182V16.624V16.6299V16.6357V16.6415V16.6473V16.6531V16.6589V16.6647V16.6704V16.6762V16.682V16.6877V16.6934V16.6992V16.7049V16.7106V16.7163V16.722V16.7277V16.7334V16.7391V16.7447V16.7504V16.756V16.7617V16.7673V16.7729V16.7785V16.7841V16.7897V16.7953V16.8009V16.8065V16.812V16.8176V16.8231V16.8286V16.8342V16.8397V16.8452V16.8507V16.8562V16.8616V16.8671V16.8726V16.878V16.8835V16.8889V16.8943V16.8997V16.9051V16.9105V16.9159V16.9213V16.9267V16.932V16.9374V16.9427V16.948V16.9534V16.9587V16.964V16.9692V16.9745V16.9798V16.9851V16.9903V16.9955V17H2H1.99353H1.98707H1.98061H1.97415H1.9677H1.96125H1.95481H1.94838H1.94195H1.93552H1.9291H1.92269H1.91628H1.90987H1.90347H1.89708H1.89069H1.88431H1.87793H1.87156H1.86519H1.85883H1.85247H1.84612H1.83977H1.83343H1.8271H1.82077H1.81445H1.80813H1.80182H1.79551H1.78921H1.78292H1.77663H1.77035H1.76407H1.7578H1.75153H1.74527H1.73902H1.73277H1.72653H1.7203H1.71407H1.70785H1.70163H1.69542H1.68922H1.68302H1.67683H1.67064H1.66446H1.65829H1.65213H1.64597H1.63981H1.63367H1.62753H1.6214H1.61527H1.60915H1.60304H1.59693H1.59083H1.58474H1.57865H1.57257H1.5665H1.56044H1.55438H1.54833H1.54228H1.53624H1.53021H1.52419H1.51817H1.51217H1.50616H1.50017H1.49418H1.4882H1.48223H1.47626H1.47031H1.46435H1.45841H1.45248H1.44655H1.44063H1.43471H1.42881H1.42291H1.41702H1.41114H1.40526H1.39939H1.39353H1.38768H1.38184H1.376H1.37017H1.36435H1.35854H1.35274H1.34694H1.34115H1.33537H1.3296H1.32384H1.31808H1.31233H1.30659H1.30086H1.29514H1.28942H1.28372H1.27802H1.27233H1.26665H1.26098H1.25531H1.24966H1.24401H1.23837H1.23274H1.22712H1.22151H1.21591H1.21031H1.20472H1.19915H1.19358H1.18802H1.18247H1.17693H1.17139H1.16587H1.16036H1.15485H1.14935H1.14386H1.13839H1.13292H1.12746H1.12201H1.11656H1.11113H1.10571H1.1003H1.09489H1.0895H1.08411H1.07874H1.07337H1.06801H1.06267H1.05733H1.052H1.04668H1.04137H1.03607H1.03078H1.02551H1.02024H1.01498H1.00973H1.00449H1V1.00002L2 1.00003Z" stroke="#3C434A" stroke-width="2"/>
<path d="M9.28809 5.15973L6.3877 14.0001H4.05127L8.01367 3.336H9.50049L9.28809 5.15973ZM11.6978 14.0001L8.79004 5.15973L8.55566 3.336H10.0571L14.0415 14.0001H11.6978ZM11.5659 10.0303V11.7515H5.93359V10.0303H11.5659Z" fill="#3C434A"/>
</svg>
