<svg width="18" height="18" viewBox="0 0 18 18" fill="none" xmlns="http://www.w3.org/2000/svg">
<path fill-rule="evenodd" clip-rule="evenodd" d="M0 0H1H7V2H2V5H7V7H2V16H16V12.9714H18V17V18H17H1H0V17V1V0ZM16.0051 2.95033C16.0052 2.95038 16.0048 2.95262 16.0033 2.95693C16.0042 2.95245 16.0049 2.95029 16.0051 2.95033ZM15.9821 3C15.9388 2.92773 15.8196 2.78147 15.5065 2.59367C14.962 2.26692 14.0806 2 13 2C11.9194 2 11.038 2.26692 10.4935 2.59367C10.1804 2.78147 10.0612 2.92773 10.0179 3C10.0612 3.07227 10.1804 3.21853 10.4935 3.40633C11.038 3.73308 11.9194 4 13 4C14.0806 4 14.962 3.73308 15.5065 3.40633C15.8196 3.21852 15.9388 3.07227 15.9821 3ZM9.99491 2.95033C9.99506 2.95029 9.99581 2.95245 9.99668 2.95694C9.99519 2.95262 9.99475 2.95038 9.99491 2.95033ZM13 6C14.1256 6 15.1643 5.77683 16 5.40022V9C16 9.53297 15.8278 9.81759 15.4976 10.0284C15.0833 10.2928 14.3144 10.5 13 10.5C11.6856 10.5 10.9167 10.2928 10.5024 10.0284C10.1722 9.81759 10 9.53297 10 9V5.40022C10.8357 5.77683 11.8744 6 13 6ZM13 0C15.7614 0 18 1.34315 18 3V9C18 10.1239 17.5529 11.0893 16.5735 11.7143C15.6782 12.2857 14.447 12.5 13 12.5C11.553 12.5 10.3218 12.2857 9.4265 11.7143C8.44712 11.0893 8 10.1239 8 9V3C8 1.34315 10.2386 0 13 0Z" fill="#3C434A"/>
</svg>
