<svg width="19" height="18" viewBox="0 0 19 18" fill="none" xmlns="http://www.w3.org/2000/svg">
<path fill-rule="evenodd" clip-rule="evenodd" d="M0 0H1H9.72727V2H2V5H7V7H2V16H16V11.9714H18V17V18H17H1H0V17V1V0ZM12.6667 0C12.3292 0 12.0556 0.273604 12.0556 0.611111C12.0556 0.948618 12.3292 1.22222 12.6667 1.22222V1.92502C10.5746 2.34968 9 4.19929 9 6.41667C9 8.94797 11.052 11 13.5833 11C16.1146 11 18.1667 8.94797 18.1667 6.41667C18.1667 4.19929 16.5921 2.34968 14.5 1.92502V1.22222C14.8375 1.22222 15.1111 0.948618 15.1111 0.611111C15.1111 0.273604 14.8375 0 14.5 0H12.6667ZM13.5833 9C15.0101 9 16.1667 7.8434 16.1667 6.41667C16.1667 5.08432 15.158 3.98754 13.8627 3.84826C13.8795 3.88615 13.8889 3.9281 13.8889 3.97224V6.11111H15.4167C15.5854 6.11111 15.7222 6.24791 15.7222 6.41667C15.7222 6.58542 15.5854 6.72222 15.4167 6.72222H13.5869L13.5833 6.72224C13.4146 6.72224 13.2778 6.58544 13.2778 6.41669V6.41667V3.97224C13.2778 3.9281 13.2871 3.88615 13.304 3.84826C12.0086 3.98754 11 5.08432 11 6.41667C11 7.8434 12.1566 9 13.5833 9Z" fill="#3C434A"/>
</svg>
